<svg id="Layer_1" data-name="Layer 1" xmlns="http://www.w3.org/2000/svg" viewBox="0 0 418.37 95.96"><defs><style>.cls-1{font-size:55px;font-family:DistortionDosAnalogue, Distortion Dos Analogue;}.cls-1,.cls-4{fill:#36454f;}.cls-2{fill:#231f20;}.cls-3{fill:#f26963;}</style></defs><text class="cls-1" transform="translate(1.37 81.56)">Design by<tspan class="cls-2" x="247.29" y="0"> </tspan><tspan class="cls-3" x="260.93" y="0">David</tspan></text><polygon class="cls-3" points="3.27 15.66 2.89 24.38 176.67 22.57 169.46 15.01 3.27 15.66"/><polygon class="cls-4" points="330.16 23.46 185.88 23.35 178.21 15.36 330.29 13.45 330.16 23.46"/><polygon class="cls-3" points="343.17 10.7 342.71 25.83 323.6 24.88 323.86 12.36 343.17 10.7"/><path class="cls-4" d="M517.77,247.88s22.21-8.14,32.68-9.1A44.08,44.08,0,0,1,570,240.23s2.73.66,7.54-4c0,0,7.65-1.45,4.21,4.52,0,0-4.43,7.19-8.8,4,0,0-8.1,7.42-12.72,8.56,0,0-2.63-1.28,9.76-9.44,0,0-13.79-9.25-52.31,5.59l-.1,3.36s37.17,0,39.25,1.07c0,0-6.71,3.39-39.35,2.15l1.06,3.09s23.07,14.79,50,5.6c0,0-7.86-5.16-8.54-9.44,0,0,2-.85,12,8.24,0,0,4.41-2.67,8,3.23,0,0,3.91,8.7-4.3,4.82l-5.43-3.53s-14.54,8.31-52.28-6.41l-4.73-8.35Z" transform="translate(-174.63 -236.04)"/></svg>